<?xml version="1.0" encoding="iso-8859-1"?>
<!-- Generator: Adobe Illustrator 16.0.0, SVG Export Plug-In . SVG Version: 6.00 Build 0)  -->
<!DOCTYPE svg PUBLIC "-//W3C//DTD SVG 1.1//EN" "http://www.w3.org/Graphics/SVG/1.1/DTD/svg11.dtd">
<svg version="1.1" id="Capa_1" xmlns="http://www.w3.org/2000/svg" xmlns:xlink="http://www.w3.org/1999/xlink" x="0px" y="0px"
	 width="792px" height="792px" viewBox="0 0 792 792" style="enable-background:new 0 0 792 792;" xml:space="preserve">
<g>
	<g>
		<path d="M414.345,10.492C410.206,3.414,403.803,0,396,0c-8.585,0-14.406,3.747-18.345,10.492
			c-156.893,270.801-235.76,446.172-235.76,527.361c0,46.05,11.175,88.685,33.958,127.656
			c22.883,39.138,53.869,69.865,92.898,92.516C307.782,780.675,350.333,792,396,792c45.666,0,88.219-11.325,127.248-33.975
			c39.038-22.65,69.724-53.544,92.507-92.516c22.883-39.138,34.35-81.606,34.35-127.656
			C650.104,456.664,571.804,280.96,414.345,10.492z M578.674,644.025c-19.128,32.393-44.967,57.624-77.285,76.527
			c-32.484,18.986-67.525,28.479-105.389,28.479c-38.255,0-73.688-9.492-106.172-28.479c-32.31-18.902-57.916-44.051-76.894-76.527
			c-18.886-32.31-28.104-67.866-28.104-106.172c0-21.484,7.303-52.295,21.859-92.848c14.723-41.054,33.85-85.188,56.991-132.319
			C310.413,217.34,353.848,136.982,396,64.786c42.152,72.197,85.271,152.721,131.937,247.901
			c23.208,47.298,42.311,91.35,56.982,132.319c14.598,40.637,22.251,71.363,22.251,92.848
			C607.17,576.159,597.802,611.633,578.674,644.025z"/>
		<path d="M476.799,389.963c-8.885,7.494-10.268,21.567-2.34,30.395c1.84,2.081,8.103,9.409,19.511,28.146
			c5.763,9.41,10.384,19.569,14.447,30.395c8.036,21.567,15.73,51.046,10.534,78.109c-7.687,40.054-35.399,75.111-85.479,104.173
			c-10.426,6.079-14.007,17.986-7.812,28.562c4.339,7.328,10.151,11.325,18.354,11.325c3.506,0,7.02-0.833,10.925-2.415
			c62.063-35.474,97.429-80.024,106.563-134.234c15.064-89.435-51.578-168.959-54.26-172.124
			C499.382,382.968,485.875,382.218,476.799,389.963z"/>
	</g>
</g>
<g>
</g>
<g>
</g>
<g>
</g>
<g>
</g>
<g>
</g>
<g>
</g>
<g>
</g>
<g>
</g>
<g>
</g>
<g>
</g>
<g>
</g>
<g>
</g>
<g>
</g>
<g>
</g>
<g>
</g>
</svg>
